<mxfile host="app.diagrams.net" modified="2021-06-23T10:31:46.188Z" agent="5.0 (X11; Linux x86_64) AppleWebKit/537.36 (KHTML, like Gecko) Chrome/91.0.4472.114 Safari/537.36" etag="dzfYlS7AnBwYi_m4orbD" version="14.7.6" type="github">
  <diagram id="RHgWGPVXOemnZ74-ghgW" name="Page-1">
    <mxGraphModel dx="1350" dy="737" grid="1" gridSize="10" guides="1" tooltips="1" connect="1" arrows="1" fold="1" page="1" pageScale="1" pageWidth="100827" pageHeight="10000" math="0" shadow="0">
      <root>
        <mxCell id="0" />
        <mxCell id="1" parent="0" />
        <mxCell id="xeA1euKdtUmH-VdmavpK-2" style="edgeStyle=orthogonalEdgeStyle;rounded=0;orthogonalLoop=1;jettySize=auto;html=1;entryX=0.5;entryY=0;entryDx=0;entryDy=0;" edge="1" parent="1" source="xeA1euKdtUmH-VdmavpK-1" target="xeA1euKdtUmH-VdmavpK-6">
          <mxGeometry relative="1" as="geometry">
            <mxPoint x="680" y="740" as="targetPoint" />
          </mxGeometry>
        </mxCell>
        <mxCell id="xeA1euKdtUmH-VdmavpK-4" style="edgeStyle=orthogonalEdgeStyle;rounded=0;orthogonalLoop=1;jettySize=auto;html=1;exitX=0.75;exitY=1;exitDx=0;exitDy=0;" edge="1" parent="1" source="xeA1euKdtUmH-VdmavpK-1" target="xeA1euKdtUmH-VdmavpK-5">
          <mxGeometry relative="1" as="geometry">
            <mxPoint x="810" y="720" as="targetPoint" />
          </mxGeometry>
        </mxCell>
        <mxCell id="xeA1euKdtUmH-VdmavpK-18" style="edgeStyle=orthogonalEdgeStyle;rounded=0;orthogonalLoop=1;jettySize=auto;html=1;entryX=0.5;entryY=0;entryDx=0;entryDy=0;" edge="1" parent="1" source="xeA1euKdtUmH-VdmavpK-1" target="xeA1euKdtUmH-VdmavpK-7">
          <mxGeometry relative="1" as="geometry">
            <mxPoint x="440" y="690" as="targetPoint" />
            <Array as="points">
              <mxPoint x="440" y="615" />
              <mxPoint x="440" y="710" />
            </Array>
          </mxGeometry>
        </mxCell>
        <mxCell id="xeA1euKdtUmH-VdmavpK-1" value="&lt;font size=&quot;1&quot;&gt;&lt;b style=&quot;font-size: 25px ; background-color: rgb(220 , 255 , 212)&quot;&gt;postgreSQL&lt;/b&gt;&lt;/font&gt;" style="rounded=0;whiteSpace=wrap;html=1;fillColor=#d5e8d4;strokeColor=#82b366;" vertex="1" parent="1">
          <mxGeometry x="620" y="560" width="200" height="110" as="geometry" />
        </mxCell>
        <mxCell id="xeA1euKdtUmH-VdmavpK-13" style="edgeStyle=orthogonalEdgeStyle;rounded=0;orthogonalLoop=1;jettySize=auto;html=1;exitX=0.75;exitY=1;exitDx=0;exitDy=0;entryX=0.5;entryY=0;entryDx=0;entryDy=0;" edge="1" parent="1" source="xeA1euKdtUmH-VdmavpK-5" target="xeA1euKdtUmH-VdmavpK-75">
          <mxGeometry relative="1" as="geometry">
            <mxPoint x="1062.04" y="791.04" as="targetPoint" />
          </mxGeometry>
        </mxCell>
        <mxCell id="xeA1euKdtUmH-VdmavpK-5" value="&lt;b&gt;db3&lt;/b&gt;" style="rounded=0;whiteSpace=wrap;html=1;fillColor=#e1d5e7;strokeColor=#9673a6;" vertex="1" parent="1">
          <mxGeometry x="870" y="690" width="120" height="60" as="geometry" />
        </mxCell>
        <mxCell id="xeA1euKdtUmH-VdmavpK-10" style="edgeStyle=orthogonalEdgeStyle;rounded=0;orthogonalLoop=1;jettySize=auto;html=1;exitX=0.75;exitY=1;exitDx=0;exitDy=0;entryX=0.5;entryY=0;entryDx=0;entryDy=0;" edge="1" parent="1" source="xeA1euKdtUmH-VdmavpK-6" target="xeA1euKdtUmH-VdmavpK-49">
          <mxGeometry relative="1" as="geometry">
            <mxPoint x="802.04" y="859.04" as="targetPoint" />
            <Array as="points">
              <mxPoint x="740" y="830" />
              <mxPoint x="800" y="830" />
            </Array>
          </mxGeometry>
        </mxCell>
        <mxCell id="xeA1euKdtUmH-VdmavpK-6" value="&lt;b&gt;db 2&lt;/b&gt;" style="rounded=0;whiteSpace=wrap;html=1;fillColor=#e1d5e7;strokeColor=#9673a6;" vertex="1" parent="1">
          <mxGeometry x="650" y="740" width="120" height="60" as="geometry" />
        </mxCell>
        <mxCell id="xeA1euKdtUmH-VdmavpK-8" style="edgeStyle=orthogonalEdgeStyle;rounded=0;orthogonalLoop=1;jettySize=auto;html=1;exitX=0.5;exitY=1;exitDx=0;exitDy=0;entryX=0.5;entryY=0;entryDx=0;entryDy=0;" edge="1" parent="1" source="xeA1euKdtUmH-VdmavpK-7" target="xeA1euKdtUmH-VdmavpK-36">
          <mxGeometry relative="1" as="geometry">
            <mxPoint x="525" y="810" as="targetPoint" />
          </mxGeometry>
        </mxCell>
        <mxCell id="xeA1euKdtUmH-VdmavpK-9" style="edgeStyle=orthogonalEdgeStyle;rounded=0;orthogonalLoop=1;jettySize=auto;html=1;entryX=0.5;entryY=0;entryDx=0;entryDy=0;" edge="1" parent="1" source="xeA1euKdtUmH-VdmavpK-7" target="xeA1euKdtUmH-VdmavpK-23">
          <mxGeometry relative="1" as="geometry">
            <mxPoint x="365" y="810" as="targetPoint" />
          </mxGeometry>
        </mxCell>
        <mxCell id="xeA1euKdtUmH-VdmavpK-7" value="&lt;b&gt;db1&lt;/b&gt;" style="rounded=0;whiteSpace=wrap;html=1;fillColor=#e1d5e7;strokeColor=#9673a6;" vertex="1" parent="1">
          <mxGeometry x="390" y="710" width="120" height="60" as="geometry" />
        </mxCell>
        <mxCell id="xeA1euKdtUmH-VdmavpK-23" value="Table" style="shape=table;startSize=30;container=1;collapsible=1;childLayout=tableLayout;fixedRows=1;rowLines=0;fontStyle=1;align=center;resizeLast=1;" vertex="1" parent="1">
          <mxGeometry x="240" y="820" width="180" height="160" as="geometry" />
        </mxCell>
        <mxCell id="xeA1euKdtUmH-VdmavpK-24" value="" style="shape=partialRectangle;collapsible=0;dropTarget=0;pointerEvents=0;fillColor=none;top=0;left=0;bottom=1;right=0;points=[[0,0.5],[1,0.5]];portConstraint=eastwest;" vertex="1" parent="xeA1euKdtUmH-VdmavpK-23">
          <mxGeometry y="30" width="180" height="30" as="geometry" />
        </mxCell>
        <mxCell id="xeA1euKdtUmH-VdmavpK-25" value="PK" style="shape=partialRectangle;connectable=0;fillColor=none;top=0;left=0;bottom=0;right=0;fontStyle=1;overflow=hidden;" vertex="1" parent="xeA1euKdtUmH-VdmavpK-24">
          <mxGeometry width="30" height="30" as="geometry" />
        </mxCell>
        <mxCell id="xeA1euKdtUmH-VdmavpK-26" value="UniqueID" style="shape=partialRectangle;connectable=0;fillColor=none;top=0;left=0;bottom=0;right=0;align=left;spacingLeft=6;fontStyle=5;overflow=hidden;" vertex="1" parent="xeA1euKdtUmH-VdmavpK-24">
          <mxGeometry x="30" width="150" height="30" as="geometry" />
        </mxCell>
        <mxCell id="xeA1euKdtUmH-VdmavpK-27" value="" style="shape=partialRectangle;collapsible=0;dropTarget=0;pointerEvents=0;fillColor=none;top=0;left=0;bottom=0;right=0;points=[[0,0.5],[1,0.5]];portConstraint=eastwest;" vertex="1" parent="xeA1euKdtUmH-VdmavpK-23">
          <mxGeometry y="60" width="180" height="30" as="geometry" />
        </mxCell>
        <mxCell id="xeA1euKdtUmH-VdmavpK-28" value="" style="shape=partialRectangle;connectable=0;fillColor=none;top=0;left=0;bottom=0;right=0;editable=1;overflow=hidden;" vertex="1" parent="xeA1euKdtUmH-VdmavpK-27">
          <mxGeometry width="30" height="30" as="geometry" />
        </mxCell>
        <mxCell id="xeA1euKdtUmH-VdmavpK-29" value="Row 1" style="shape=partialRectangle;connectable=0;fillColor=none;top=0;left=0;bottom=0;right=0;align=left;spacingLeft=6;overflow=hidden;" vertex="1" parent="xeA1euKdtUmH-VdmavpK-27">
          <mxGeometry x="30" width="150" height="30" as="geometry" />
        </mxCell>
        <mxCell id="xeA1euKdtUmH-VdmavpK-30" value="" style="shape=partialRectangle;collapsible=0;dropTarget=0;pointerEvents=0;fillColor=none;top=0;left=0;bottom=0;right=0;points=[[0,0.5],[1,0.5]];portConstraint=eastwest;" vertex="1" parent="xeA1euKdtUmH-VdmavpK-23">
          <mxGeometry y="90" width="180" height="30" as="geometry" />
        </mxCell>
        <mxCell id="xeA1euKdtUmH-VdmavpK-31" value="" style="shape=partialRectangle;connectable=0;fillColor=none;top=0;left=0;bottom=0;right=0;editable=1;overflow=hidden;" vertex="1" parent="xeA1euKdtUmH-VdmavpK-30">
          <mxGeometry width="30" height="30" as="geometry" />
        </mxCell>
        <mxCell id="xeA1euKdtUmH-VdmavpK-32" value="Row 2" style="shape=partialRectangle;connectable=0;fillColor=none;top=0;left=0;bottom=0;right=0;align=left;spacingLeft=6;overflow=hidden;" vertex="1" parent="xeA1euKdtUmH-VdmavpK-30">
          <mxGeometry x="30" width="150" height="30" as="geometry" />
        </mxCell>
        <mxCell id="xeA1euKdtUmH-VdmavpK-33" value="" style="shape=partialRectangle;collapsible=0;dropTarget=0;pointerEvents=0;fillColor=none;top=0;left=0;bottom=0;right=0;points=[[0,0.5],[1,0.5]];portConstraint=eastwest;" vertex="1" parent="xeA1euKdtUmH-VdmavpK-23">
          <mxGeometry y="120" width="180" height="30" as="geometry" />
        </mxCell>
        <mxCell id="xeA1euKdtUmH-VdmavpK-34" value="" style="shape=partialRectangle;connectable=0;fillColor=none;top=0;left=0;bottom=0;right=0;editable=1;overflow=hidden;" vertex="1" parent="xeA1euKdtUmH-VdmavpK-33">
          <mxGeometry width="30" height="30" as="geometry" />
        </mxCell>
        <mxCell id="xeA1euKdtUmH-VdmavpK-35" value="Row 3" style="shape=partialRectangle;connectable=0;fillColor=none;top=0;left=0;bottom=0;right=0;align=left;spacingLeft=6;overflow=hidden;" vertex="1" parent="xeA1euKdtUmH-VdmavpK-33">
          <mxGeometry x="30" width="150" height="30" as="geometry" />
        </mxCell>
        <mxCell id="xeA1euKdtUmH-VdmavpK-36" value="Table" style="shape=table;startSize=30;container=1;collapsible=1;childLayout=tableLayout;fixedRows=1;rowLines=0;fontStyle=1;align=center;resizeLast=1;" vertex="1" parent="1">
          <mxGeometry x="430" y="820" width="180" height="160" as="geometry" />
        </mxCell>
        <mxCell id="xeA1euKdtUmH-VdmavpK-37" value="" style="shape=partialRectangle;collapsible=0;dropTarget=0;pointerEvents=0;fillColor=none;top=0;left=0;bottom=1;right=0;points=[[0,0.5],[1,0.5]];portConstraint=eastwest;" vertex="1" parent="xeA1euKdtUmH-VdmavpK-36">
          <mxGeometry y="30" width="180" height="30" as="geometry" />
        </mxCell>
        <mxCell id="xeA1euKdtUmH-VdmavpK-38" value="PK" style="shape=partialRectangle;connectable=0;fillColor=none;top=0;left=0;bottom=0;right=0;fontStyle=1;overflow=hidden;" vertex="1" parent="xeA1euKdtUmH-VdmavpK-37">
          <mxGeometry width="30" height="30" as="geometry" />
        </mxCell>
        <mxCell id="xeA1euKdtUmH-VdmavpK-39" value="UniqueID" style="shape=partialRectangle;connectable=0;fillColor=none;top=0;left=0;bottom=0;right=0;align=left;spacingLeft=6;fontStyle=5;overflow=hidden;" vertex="1" parent="xeA1euKdtUmH-VdmavpK-37">
          <mxGeometry x="30" width="150" height="30" as="geometry" />
        </mxCell>
        <mxCell id="xeA1euKdtUmH-VdmavpK-40" value="" style="shape=partialRectangle;collapsible=0;dropTarget=0;pointerEvents=0;fillColor=none;top=0;left=0;bottom=0;right=0;points=[[0,0.5],[1,0.5]];portConstraint=eastwest;" vertex="1" parent="xeA1euKdtUmH-VdmavpK-36">
          <mxGeometry y="60" width="180" height="30" as="geometry" />
        </mxCell>
        <mxCell id="xeA1euKdtUmH-VdmavpK-41" value="" style="shape=partialRectangle;connectable=0;fillColor=none;top=0;left=0;bottom=0;right=0;editable=1;overflow=hidden;" vertex="1" parent="xeA1euKdtUmH-VdmavpK-40">
          <mxGeometry width="30" height="30" as="geometry" />
        </mxCell>
        <mxCell id="xeA1euKdtUmH-VdmavpK-42" value="Row 1" style="shape=partialRectangle;connectable=0;fillColor=none;top=0;left=0;bottom=0;right=0;align=left;spacingLeft=6;overflow=hidden;" vertex="1" parent="xeA1euKdtUmH-VdmavpK-40">
          <mxGeometry x="30" width="150" height="30" as="geometry" />
        </mxCell>
        <mxCell id="xeA1euKdtUmH-VdmavpK-43" value="" style="shape=partialRectangle;collapsible=0;dropTarget=0;pointerEvents=0;fillColor=none;top=0;left=0;bottom=0;right=0;points=[[0,0.5],[1,0.5]];portConstraint=eastwest;" vertex="1" parent="xeA1euKdtUmH-VdmavpK-36">
          <mxGeometry y="90" width="180" height="30" as="geometry" />
        </mxCell>
        <mxCell id="xeA1euKdtUmH-VdmavpK-44" value="" style="shape=partialRectangle;connectable=0;fillColor=none;top=0;left=0;bottom=0;right=0;editable=1;overflow=hidden;" vertex="1" parent="xeA1euKdtUmH-VdmavpK-43">
          <mxGeometry width="30" height="30" as="geometry" />
        </mxCell>
        <mxCell id="xeA1euKdtUmH-VdmavpK-45" value="Row 2" style="shape=partialRectangle;connectable=0;fillColor=none;top=0;left=0;bottom=0;right=0;align=left;spacingLeft=6;overflow=hidden;" vertex="1" parent="xeA1euKdtUmH-VdmavpK-43">
          <mxGeometry x="30" width="150" height="30" as="geometry" />
        </mxCell>
        <mxCell id="xeA1euKdtUmH-VdmavpK-46" value="" style="shape=partialRectangle;collapsible=0;dropTarget=0;pointerEvents=0;fillColor=none;top=0;left=0;bottom=0;right=0;points=[[0,0.5],[1,0.5]];portConstraint=eastwest;" vertex="1" parent="xeA1euKdtUmH-VdmavpK-36">
          <mxGeometry y="120" width="180" height="30" as="geometry" />
        </mxCell>
        <mxCell id="xeA1euKdtUmH-VdmavpK-47" value="" style="shape=partialRectangle;connectable=0;fillColor=none;top=0;left=0;bottom=0;right=0;editable=1;overflow=hidden;" vertex="1" parent="xeA1euKdtUmH-VdmavpK-46">
          <mxGeometry width="30" height="30" as="geometry" />
        </mxCell>
        <mxCell id="xeA1euKdtUmH-VdmavpK-48" value="Row 3" style="shape=partialRectangle;connectable=0;fillColor=none;top=0;left=0;bottom=0;right=0;align=left;spacingLeft=6;overflow=hidden;" vertex="1" parent="xeA1euKdtUmH-VdmavpK-46">
          <mxGeometry x="30" width="150" height="30" as="geometry" />
        </mxCell>
        <mxCell id="xeA1euKdtUmH-VdmavpK-49" value="Table" style="shape=table;startSize=30;container=1;collapsible=1;childLayout=tableLayout;fixedRows=1;rowLines=0;fontStyle=1;align=center;resizeLast=1;" vertex="1" parent="1">
          <mxGeometry x="710" y="870" width="180" height="160" as="geometry" />
        </mxCell>
        <mxCell id="xeA1euKdtUmH-VdmavpK-50" value="" style="shape=partialRectangle;collapsible=0;dropTarget=0;pointerEvents=0;fillColor=none;top=0;left=0;bottom=1;right=0;points=[[0,0.5],[1,0.5]];portConstraint=eastwest;" vertex="1" parent="xeA1euKdtUmH-VdmavpK-49">
          <mxGeometry y="30" width="180" height="30" as="geometry" />
        </mxCell>
        <mxCell id="xeA1euKdtUmH-VdmavpK-51" value="PK" style="shape=partialRectangle;connectable=0;fillColor=none;top=0;left=0;bottom=0;right=0;fontStyle=1;overflow=hidden;" vertex="1" parent="xeA1euKdtUmH-VdmavpK-50">
          <mxGeometry width="30" height="30" as="geometry" />
        </mxCell>
        <mxCell id="xeA1euKdtUmH-VdmavpK-52" value="UniqueID" style="shape=partialRectangle;connectable=0;fillColor=none;top=0;left=0;bottom=0;right=0;align=left;spacingLeft=6;fontStyle=5;overflow=hidden;" vertex="1" parent="xeA1euKdtUmH-VdmavpK-50">
          <mxGeometry x="30" width="150" height="30" as="geometry" />
        </mxCell>
        <mxCell id="xeA1euKdtUmH-VdmavpK-53" value="" style="shape=partialRectangle;collapsible=0;dropTarget=0;pointerEvents=0;fillColor=none;top=0;left=0;bottom=0;right=0;points=[[0,0.5],[1,0.5]];portConstraint=eastwest;" vertex="1" parent="xeA1euKdtUmH-VdmavpK-49">
          <mxGeometry y="60" width="180" height="30" as="geometry" />
        </mxCell>
        <mxCell id="xeA1euKdtUmH-VdmavpK-54" value="" style="shape=partialRectangle;connectable=0;fillColor=none;top=0;left=0;bottom=0;right=0;editable=1;overflow=hidden;" vertex="1" parent="xeA1euKdtUmH-VdmavpK-53">
          <mxGeometry width="30" height="30" as="geometry" />
        </mxCell>
        <mxCell id="xeA1euKdtUmH-VdmavpK-55" value="Row 1" style="shape=partialRectangle;connectable=0;fillColor=none;top=0;left=0;bottom=0;right=0;align=left;spacingLeft=6;overflow=hidden;" vertex="1" parent="xeA1euKdtUmH-VdmavpK-53">
          <mxGeometry x="30" width="150" height="30" as="geometry" />
        </mxCell>
        <mxCell id="xeA1euKdtUmH-VdmavpK-56" value="" style="shape=partialRectangle;collapsible=0;dropTarget=0;pointerEvents=0;fillColor=none;top=0;left=0;bottom=0;right=0;points=[[0,0.5],[1,0.5]];portConstraint=eastwest;" vertex="1" parent="xeA1euKdtUmH-VdmavpK-49">
          <mxGeometry y="90" width="180" height="30" as="geometry" />
        </mxCell>
        <mxCell id="xeA1euKdtUmH-VdmavpK-57" value="" style="shape=partialRectangle;connectable=0;fillColor=none;top=0;left=0;bottom=0;right=0;editable=1;overflow=hidden;" vertex="1" parent="xeA1euKdtUmH-VdmavpK-56">
          <mxGeometry width="30" height="30" as="geometry" />
        </mxCell>
        <mxCell id="xeA1euKdtUmH-VdmavpK-58" value="Row 2" style="shape=partialRectangle;connectable=0;fillColor=none;top=0;left=0;bottom=0;right=0;align=left;spacingLeft=6;overflow=hidden;" vertex="1" parent="xeA1euKdtUmH-VdmavpK-56">
          <mxGeometry x="30" width="150" height="30" as="geometry" />
        </mxCell>
        <mxCell id="xeA1euKdtUmH-VdmavpK-59" value="" style="shape=partialRectangle;collapsible=0;dropTarget=0;pointerEvents=0;fillColor=none;top=0;left=0;bottom=0;right=0;points=[[0,0.5],[1,0.5]];portConstraint=eastwest;" vertex="1" parent="xeA1euKdtUmH-VdmavpK-49">
          <mxGeometry y="120" width="180" height="30" as="geometry" />
        </mxCell>
        <mxCell id="xeA1euKdtUmH-VdmavpK-60" value="" style="shape=partialRectangle;connectable=0;fillColor=none;top=0;left=0;bottom=0;right=0;editable=1;overflow=hidden;" vertex="1" parent="xeA1euKdtUmH-VdmavpK-59">
          <mxGeometry width="30" height="30" as="geometry" />
        </mxCell>
        <mxCell id="xeA1euKdtUmH-VdmavpK-61" value="Row 3" style="shape=partialRectangle;connectable=0;fillColor=none;top=0;left=0;bottom=0;right=0;align=left;spacingLeft=6;overflow=hidden;" vertex="1" parent="xeA1euKdtUmH-VdmavpK-59">
          <mxGeometry x="30" width="150" height="30" as="geometry" />
        </mxCell>
        <mxCell id="xeA1euKdtUmH-VdmavpK-75" value="Table" style="shape=table;startSize=30;container=1;collapsible=1;childLayout=tableLayout;fixedRows=1;rowLines=0;fontStyle=1;align=center;resizeLast=1;" vertex="1" parent="1">
          <mxGeometry x="1050" y="800" width="180" height="160" as="geometry" />
        </mxCell>
        <mxCell id="xeA1euKdtUmH-VdmavpK-76" value="" style="shape=partialRectangle;collapsible=0;dropTarget=0;pointerEvents=0;fillColor=none;top=0;left=0;bottom=1;right=0;points=[[0,0.5],[1,0.5]];portConstraint=eastwest;" vertex="1" parent="xeA1euKdtUmH-VdmavpK-75">
          <mxGeometry y="30" width="180" height="30" as="geometry" />
        </mxCell>
        <mxCell id="xeA1euKdtUmH-VdmavpK-77" value="PK" style="shape=partialRectangle;connectable=0;fillColor=none;top=0;left=0;bottom=0;right=0;fontStyle=1;overflow=hidden;" vertex="1" parent="xeA1euKdtUmH-VdmavpK-76">
          <mxGeometry width="30" height="30" as="geometry" />
        </mxCell>
        <mxCell id="xeA1euKdtUmH-VdmavpK-78" value="UniqueID" style="shape=partialRectangle;connectable=0;fillColor=none;top=0;left=0;bottom=0;right=0;align=left;spacingLeft=6;fontStyle=5;overflow=hidden;" vertex="1" parent="xeA1euKdtUmH-VdmavpK-76">
          <mxGeometry x="30" width="150" height="30" as="geometry" />
        </mxCell>
        <mxCell id="xeA1euKdtUmH-VdmavpK-79" value="" style="shape=partialRectangle;collapsible=0;dropTarget=0;pointerEvents=0;fillColor=none;top=0;left=0;bottom=0;right=0;points=[[0,0.5],[1,0.5]];portConstraint=eastwest;" vertex="1" parent="xeA1euKdtUmH-VdmavpK-75">
          <mxGeometry y="60" width="180" height="30" as="geometry" />
        </mxCell>
        <mxCell id="xeA1euKdtUmH-VdmavpK-80" value="" style="shape=partialRectangle;connectable=0;fillColor=none;top=0;left=0;bottom=0;right=0;editable=1;overflow=hidden;" vertex="1" parent="xeA1euKdtUmH-VdmavpK-79">
          <mxGeometry width="30" height="30" as="geometry" />
        </mxCell>
        <mxCell id="xeA1euKdtUmH-VdmavpK-81" value="Row 1" style="shape=partialRectangle;connectable=0;fillColor=none;top=0;left=0;bottom=0;right=0;align=left;spacingLeft=6;overflow=hidden;" vertex="1" parent="xeA1euKdtUmH-VdmavpK-79">
          <mxGeometry x="30" width="150" height="30" as="geometry" />
        </mxCell>
        <mxCell id="xeA1euKdtUmH-VdmavpK-82" value="" style="shape=partialRectangle;collapsible=0;dropTarget=0;pointerEvents=0;fillColor=none;top=0;left=0;bottom=0;right=0;points=[[0,0.5],[1,0.5]];portConstraint=eastwest;" vertex="1" parent="xeA1euKdtUmH-VdmavpK-75">
          <mxGeometry y="90" width="180" height="30" as="geometry" />
        </mxCell>
        <mxCell id="xeA1euKdtUmH-VdmavpK-83" value="" style="shape=partialRectangle;connectable=0;fillColor=none;top=0;left=0;bottom=0;right=0;editable=1;overflow=hidden;" vertex="1" parent="xeA1euKdtUmH-VdmavpK-82">
          <mxGeometry width="30" height="30" as="geometry" />
        </mxCell>
        <mxCell id="xeA1euKdtUmH-VdmavpK-84" value="Row 2" style="shape=partialRectangle;connectable=0;fillColor=none;top=0;left=0;bottom=0;right=0;align=left;spacingLeft=6;overflow=hidden;" vertex="1" parent="xeA1euKdtUmH-VdmavpK-82">
          <mxGeometry x="30" width="150" height="30" as="geometry" />
        </mxCell>
        <mxCell id="xeA1euKdtUmH-VdmavpK-85" value="" style="shape=partialRectangle;collapsible=0;dropTarget=0;pointerEvents=0;fillColor=none;top=0;left=0;bottom=0;right=0;points=[[0,0.5],[1,0.5]];portConstraint=eastwest;" vertex="1" parent="xeA1euKdtUmH-VdmavpK-75">
          <mxGeometry y="120" width="180" height="30" as="geometry" />
        </mxCell>
        <mxCell id="xeA1euKdtUmH-VdmavpK-86" value="" style="shape=partialRectangle;connectable=0;fillColor=none;top=0;left=0;bottom=0;right=0;editable=1;overflow=hidden;" vertex="1" parent="xeA1euKdtUmH-VdmavpK-85">
          <mxGeometry width="30" height="30" as="geometry" />
        </mxCell>
        <mxCell id="xeA1euKdtUmH-VdmavpK-87" value="Row 3" style="shape=partialRectangle;connectable=0;fillColor=none;top=0;left=0;bottom=0;right=0;align=left;spacingLeft=6;overflow=hidden;" vertex="1" parent="xeA1euKdtUmH-VdmavpK-85">
          <mxGeometry x="30" width="150" height="30" as="geometry" />
        </mxCell>
      </root>
    </mxGraphModel>
  </diagram>
</mxfile>
